<svg width="3292" height="878" viewBox="0 0 3292 878" fill="none" xmlns="http://www.w3.org/2000/svg">
<g clip-path="url(#clip0_216_2309)">
<rect width="877.908" height="877.908" rx="438.954" fill="#174DFF"/>
<g filter="url(#filter0_f_216_2309)">
<circle cx="587.885" cy="650.592" r="462.469" fill="url(#paint0_linear_216_2309)"/>
</g>
</g>
<path d="M3024.66 704.666C2986.1 704.666 2952.35 696.952 2923.43 681.526C2894.5 665.618 2872.09 643.202 2856.18 614.277C2840.27 584.871 2832.32 550.162 2832.32 510.15C2832.32 469.174 2840.27 433.983 2856.18 404.577C2872.57 374.689 2895.23 351.79 2924.15 335.882C2953.08 319.974 2986.34 312.019 3023.94 312.019C3062.51 312.019 3096.01 320.215 3124.45 336.605C3152.89 352.995 3175.07 375.894 3190.98 405.3C3206.89 434.706 3214.84 469.897 3214.84 510.873C3214.84 550.885 3206.89 585.594 3190.98 615.001C3175.55 643.925 3153.62 666.1 3125.17 681.526C3097.21 696.952 3063.71 704.666 3024.66 704.666ZM3023.22 612.108C3045.39 612.108 3063.23 607.287 3076.73 597.646C3090.22 588.005 3099.87 575.471 3105.65 560.045C3111.92 544.136 3115.05 527.505 3115.05 510.15C3115.05 492.796 3111.92 476.164 3105.65 460.256C3099.87 444.348 3090.22 431.332 3076.73 421.208C3063.71 410.603 3045.87 405.3 3023.22 405.3C3001.52 405.3 2983.93 410.603 2970.43 421.208C2956.93 431.332 2947.05 444.348 2940.78 460.256C2935 476.164 2932.11 492.796 2932.11 510.15C2932.11 527.987 2935 544.618 2940.78 560.045C2947.05 575.471 2956.93 588.005 2970.43 597.646C2983.93 607.287 3001.52 612.108 3023.22 612.108Z" fill="black"/>
<path d="M2613.48 704.666C2574.92 704.666 2541.17 696.952 2512.25 681.526C2483.32 665.618 2460.91 643.202 2445 614.277C2429.09 584.871 2421.14 550.162 2421.14 510.15C2421.14 469.174 2429.09 433.983 2445 404.577C2461.39 374.689 2484.05 351.79 2512.97 335.882C2541.89 319.974 2575.16 312.019 2612.76 312.019C2651.32 312.019 2684.83 320.215 2713.27 336.605C2741.71 352.995 2763.89 375.894 2779.8 405.3C2795.7 434.706 2803.66 469.897 2803.66 510.873C2803.66 550.885 2795.7 585.594 2779.8 615.001C2764.37 643.925 2742.44 666.1 2713.99 681.526C2686.03 696.952 2652.53 704.666 2613.48 704.666ZM2612.04 612.108C2634.21 612.108 2652.05 607.287 2665.55 597.646C2679.04 588.005 2688.68 575.471 2694.47 560.045C2700.74 544.136 2703.87 527.505 2703.87 510.15C2703.87 492.796 2700.74 476.164 2694.47 460.256C2688.68 444.348 2679.04 431.332 2665.55 421.208C2652.53 410.603 2634.69 405.3 2612.04 405.3C2590.34 405.3 2572.75 410.603 2559.25 421.208C2545.75 431.332 2535.87 444.348 2529.6 460.256C2523.82 476.164 2520.92 492.796 2520.92 510.15C2520.92 527.987 2523.82 544.618 2529.6 560.045C2535.87 575.471 2545.75 588.005 2559.25 597.646C2572.75 607.287 2590.34 612.108 2612.04 612.108Z" fill="black"/>
<path d="M2283.81 699.604V187.645H2385.04V699.604H2283.81Z" fill="black"/>
<path d="M2013.63 699.604V318.527H2104.74L2111.25 364.083C2120.89 349.621 2131.73 338.774 2143.79 331.543C2155.84 323.83 2168.37 318.768 2181.39 316.358C2194.4 313.466 2207.66 312.019 2221.16 312.019C2227.42 312.019 2233.21 312.26 2238.51 312.742C2243.82 312.742 2247.67 312.742 2250.08 312.742V410.362H2226.22C2203.56 410.362 2183.8 414.218 2166.92 421.931C2150.05 429.645 2137.04 441.696 2127.88 458.087C2119.2 474.477 2114.86 495.447 2114.86 520.997V699.604H2013.63Z" fill="black"/>
<path d="M1745.09 704.666C1727.74 704.666 1710.87 702.496 1694.48 698.158C1678.57 693.337 1664.35 686.106 1651.81 676.465C1639.28 666.823 1629.4 654.771 1622.17 640.309C1614.94 625.847 1611.32 608.975 1611.32 589.692C1611.32 563.66 1616.62 542.931 1627.23 527.505C1637.83 511.596 1652.06 499.545 1669.89 491.35C1687.73 483.154 1708.22 477.611 1731.36 474.718C1754.98 471.826 1779.32 470.379 1804.39 470.379H1859.35C1859.35 456.399 1856.69 444.107 1851.39 433.501C1846.57 422.413 1839.1 413.977 1828.97 408.192C1818.85 401.926 1805.84 398.792 1789.93 398.792C1779.8 398.792 1769.92 400.238 1760.28 403.131C1751.12 405.541 1743.41 409.157 1737.14 413.977C1730.87 418.798 1726.78 425.065 1724.85 432.778H1622.17C1625.06 411.567 1631.81 393.489 1642.41 378.545C1653.02 363.119 1666.28 350.585 1682.18 340.944C1698.09 331.302 1715.45 324.312 1734.25 319.974C1753.53 315.153 1773.3 312.742 1793.54 312.742C1848.98 312.742 1889.96 328.651 1916.47 360.467C1942.98 391.802 1956.24 436.394 1956.24 494.242V699.604H1865.13L1863.68 650.433C1851.63 667.305 1837.89 679.598 1822.47 687.311C1807.52 695.024 1793.06 699.845 1779.08 701.773C1765.1 703.701 1753.77 704.666 1745.09 704.666ZM1768.23 624.401C1785.11 624.401 1800.53 621.026 1814.51 614.277C1828.49 607.528 1839.58 598.369 1847.78 586.799C1855.97 575.23 1860.07 562.214 1860.07 547.752V538.351H1790.65C1780.53 538.351 1770.64 538.833 1761 539.798C1751.84 540.762 1743.41 542.69 1735.69 545.582C1728.46 547.993 1722.68 552.09 1718.34 557.875C1714 563.66 1711.83 571.373 1711.83 581.015C1711.83 590.656 1714.24 598.851 1719.06 605.6C1724.37 611.867 1731.36 616.688 1740.03 620.062C1748.71 622.955 1758.11 624.401 1768.23 624.401Z" fill="black"/>
<path d="M1010.12 699.604V187.645H1147.51L1284.18 434.947L1419.4 187.645H1551.73V699.604H1448.32V325.758L1302.98 585.353H1261.04L1113.52 325.758V699.604H1010.12Z" fill="black"/>
<defs>
<filter id="filter0_f_216_2309" x="-159.904" y="-97.1969" width="1495.58" height="1495.58" filterUnits="userSpaceOnUse" color-interpolation-filters="sRGB">
<feFlood flood-opacity="0" result="BackgroundImageFix"/>
<feBlend mode="normal" in="SourceGraphic" in2="BackgroundImageFix" result="shape"/>
<feGaussianBlur stdDeviation="142.66" result="effect1_foregroundBlur_216_2309"/>
</filter>
<linearGradient id="paint0_linear_216_2309" x1="362.9" y1="188.123" x2="658.431" y2="838.715" gradientUnits="userSpaceOnUse">
<stop stop-color="#D01FFD"/>
<stop offset="1" stop-color="#F3804F"/>
</linearGradient>
<clipPath id="clip0_216_2309">
<rect width="877.908" height="877.908" rx="438.954" fill="white"/>
</clipPath>
</defs>
</svg>
